HIERARCHY
ROOT Hips
{
	OFFSET 0.000000 0.000000 0.000000
	CHANNELS 6 Xposition Yposition Zposition Zrotation Yrotation Xrotation 
	JOINT LeftUpLeg_virtual
	{
		OFFSET 0.000000 0.000000 0.000000
		CHANNELS 3 Zrotation Yrotation Xrotation
		JOINT LeftUpLeg
		{
			OFFSET 8.479694 -4.795517 -0.379053
			CHANNELS 3 Zrotation Yrotation Xrotation
			JOINT LeftLeg
			{
				OFFSET 0.485052 -32.551468 0.112863
				CHANNELS 3 Zrotation Yrotation Xrotation
				JOINT LeftFoot
				{
					OFFSET 0.438033 -32.635670 -3.012641
					CHANNELS 3 Zrotation Yrotation Xrotation
					JOINT LeftToeBase
					{
						OFFSET 0.970169 -13.225353 11.864223
						CHANNELS 3 Zrotation Yrotation Xrotation
						End Site
						{
							OFFSET 0.000000 0.000000 0.000000
						}
					}
				}
			}
		}
	}
	JOINT RightUpLeg_virtual
	{
		OFFSET 0.000000 0.000000 0.000000
		CHANNELS 3 Zrotation Yrotation Xrotation
		JOINT RightUpLeg
		{
			OFFSET -8.479694 -4.795517 -0.379053
			CHANNELS 3 Zrotation Yrotation Xrotation
			JOINT RightLeg
			{
				OFFSET -0.484100 -32.551483 0.112903
				CHANNELS 3 Zrotation Yrotation Xrotation
				JOINT RightFoot
				{
					OFFSET -0.438985 -32.635651 -3.012681
					CHANNELS 3 Zrotation Yrotation Xrotation
					JOINT RightToeBase
					{
						OFFSET -0.970169 -13.225354 11.864223
						CHANNELS 3 Zrotation Yrotation Xrotation
						End Site
						{
							OFFSET 0.000000 0.000000 0.000000
						}
					}
				}
			}
		}
	}
	JOINT Spine_virtual
	{
		OFFSET 0.000000 0.000000 0.000000
		CHANNELS 3 Zrotation Yrotation Xrotation
		JOINT Spine
		{
			OFFSET 0.000000 7.722015 1.166203
			CHANNELS 3 Zrotation Yrotation Xrotation
			JOINT Spine1
			{
				OFFSET 0.000000 12.024086 0.248766
				CHANNELS 3 Zrotation Yrotation Xrotation
				JOINT Spine2
				{
					OFFSET -0.000000 11.503036 -0.491240
					CHANNELS 3 Zrotation Yrotation Xrotation
					JOINT Neck_virtual
					{
						OFFSET 0.000000 0.000000 0.000000
						CHANNELS 3 Zrotation Yrotation Xrotation
						JOINT Neck
						{
							OFFSET 0.000000 18.430687 -3.123054
							CHANNELS 3 Zrotation Yrotation Xrotation
							JOINT Head
							{
								OFFSET -0.000000 9.051071 1.034021
								CHANNELS 3 Zrotation Yrotation Xrotation
								End Site
								{
									OFFSET 0.000000 0.000000 0.000000
								}
							}
						}
					}
					JOINT LeftShoulder_virtual
					{
						OFFSET 0.000000 0.000000 0.000000
						CHANNELS 3 Zrotation Yrotation Xrotation
						JOINT LeftShoulder
						{
							OFFSET 6.197824 13.665230 -4.064723
							CHANNELS 3 Zrotation Yrotation Xrotation
							JOINT LeftArm
							{
								OFFSET 7.778132 -0.187073 -1.709282
								CHANNELS 3 Zrotation Yrotation Xrotation
								JOINT LeftForeArm
								{
									OFFSET 21.954697 0.000000 -2.041093
									CHANNELS 3 Zrotation Yrotation Xrotation
									JOINT LeftHand
									{
										OFFSET 22.992908 0.000000 -0.870901
										CHANNELS 3 Zrotation Yrotation Xrotation
										End Site
										{
											OFFSET 0.000000 0.000000 0.000000
										}
									}
								}
							}
						}
					}
					JOINT RightShoulder_virtual
					{
						OFFSET 0.000000 0.000000 0.000000
						CHANNELS 3 Zrotation Yrotation Xrotation
						JOINT RightShoulder
						{
							OFFSET -6.197824 13.665230 -4.064723
							CHANNELS 3 Zrotation Yrotation Xrotation
							JOINT RightArm
							{
								OFFSET -7.778132 -0.187073 -1.709282
								CHANNELS 3 Zrotation Yrotation Xrotation
								JOINT RightForeArm
								{
									OFFSET -21.954697 0.000000 -2.041093
									CHANNELS 3 Zrotation Yrotation Xrotation
									JOINT RightHand
									{
										OFFSET -22.992908 0.000000 -0.870901
										CHANNELS 3 Zrotation Yrotation Xrotation
										End Site
										{
											OFFSET 0.000000 0.000000 0.000000
										}
									}
								}
							}
						}
					}
				}
			}
		}
	}
}
MOTION
Frames: 4
Frame Time: 0.033333
-5.423748 56.442532 11.202193 -179.027400 -0.433743 179.722686 6.229819 -7.981045 -10.710666 -3.224726 13.307918 -67.627233 8.988381 -0.250109 80.817769 -4.066098 -11.324508 -15.203156 0.000000 0.000000 0.000000 1.120362 -2.840299 -6.960506 1.385274 -2.814511 -70.779939 1.562671 3.322139 82.565608 0.382886 3.989408 -14.574736 0.000000 0.000000 0.000000 3.196433 -2.198554 -19.140869 -4.012241 2.717968 -8.681153 2.508019 -1.857287 5.620146 -0.088883 -0.109555 -0.067254 1.452466 -1.479929 10.129052 -1.465473 2.735414 1.987694 0.000000 0.000000 0.000000 3.629477 -0.681032 5.411281 -2.897133 -10.261833 0.880966 -59.638193 -36.731883 63.672799 152.483973 -80.198633 -120.895933 0.000000 0.000000 0.000000 -0.761233 1.116764 4.613968 31.766940 24.505112 15.826230 27.642223 32.377153 33.334018 177.348020 54.483620 179.121766 0.000000 0.000000 0.000000 
-5.311155 56.477394 11.245323 -179.163252 -0.191053 179.810618 6.222776 -8.072005 -10.917693 -2.939531 12.761236 -67.469572 8.964826 -0.443109 80.798235 -3.715789 -11.159435 -14.939031 0.000000 0.000000 0.000000 1.181971 -3.023155 -7.213000 1.622312 -2.982114 -70.696863 1.525502 2.869662 82.544072 0.359659 4.254427 -14.605330 0.000000 0.000000 0.000000 2.903867 -2.397265 -19.616746 -3.832348 2.715708 -8.537376 2.671589 -1.866306 5.631980 -0.075592 -0.144421 -0.020097 1.566575 -1.631677 10.130261 -1.319857 2.623652 1.660924 0.000000 0.000000 0.000000 3.831956 -0.627105 5.440341 -2.909073 -10.122297 0.942036 -59.801865 -37.123577 65.028558 153.974648 -80.012804 -122.175200 0.000000 0.000000 0.000000 -0.567710 0.948673 4.622352 31.958506 24.673877 15.884945 27.492341 32.309622 33.631875 177.205501 54.437916 178.880264 0.000000 0.000000 0.000000 
-5.238824 56.490131 11.271070 -179.218044 0.195189 179.968832 6.205850 -8.181938 -11.103400 -2.590669 12.206879 -67.575064 8.914095 -0.955918 81.014042 -3.360372 -10.986134 -14.652479 0.000000 0.000000 0.000000 1.181058 -3.097835 -7.281974 1.882043 -3.189684 -70.998840 1.474157 2.438789 82.511506 0.412260 4.426928 -14.468979 0.000000 0.000000 0.000000 2.802122 -2.699218 -19.976126 -3.583658 2.786540 -8.500905 2.749111 -1.718990 5.569932 -0.116023 -0.060124 0.013664 1.861176 -1.235460 10.150345 -1.232035 2.566902 1.292244 0.000000 0.000000 0.000000 3.946389 -0.464310 5.404439 -2.799154 -9.990112 1.093902 -59.853412 -37.538371 66.141626 154.759232 -79.902934 -122.826445 0.000000 0.000000 0.000000 -0.450439 1.211696 4.565244 32.183465 24.682560 16.050207 27.475930 32.243277 33.610955 177.304321 54.411281 178.867218 0.000000 0.000000 0.000000 
-5.245179 56.492142 11.307900 -179.208796 0.533583 -179.969693 6.176679 -8.367369 -11.118785 -2.259689 11.896897 -67.661794 8.860548 -1.253469 81.156280 -3.045271 -10.784161 -14.476868 0.000000 0.000000 0.000000 1.092581 -3.265207 -7.198184 2.110668 -3.457891 -71.306321 1.424408 2.134519 82.458511 0.537602 4.498641 -14.071567 0.000000 0.000000 0.000000 2.498092 -2.580478 -20.214797 -3.302648 2.829007 -8.409184 2.841827 -1.757070 5.504388 -0.080206 -0.154128 -0.040358 1.895311 -1.389023 10.108916 -1.134525 2.380799 0.913997 0.000000 0.000000 0.000000 3.990800 -0.454673 5.338828 -2.949369 -9.872363 1.253182 -59.842798 -37.901751 66.916477 155.346792 -80.004062 -123.377532 0.000000 0.000000 0.000000 -0.482847 1.279557 4.418089 32.367204 24.585297 16.106390 27.579831 32.227968 33.651304 177.392608 54.399817 178.813533 0.000000 0.000000 0.000000 
